<?xml version="1.0" standalone="yes"?>
<svg xmlns="http://www.w3.org/2000/svg" width="500" height="500">
<path style="fill:#ffffff; stroke:none;" d="M0 0L0 500L500 500L500 0L0 0z"/>
<path style="fill:#799fd1; stroke:none;" d="M45 196L45 197L47 203L48 203L45 196M54 196L54 222L55 222C55 214.949 52.6391 202.756 57 197L54 196M40 197L40 198L43 198L40 197z"/>
<path style="fill:#054dad; stroke:none;" d="M47 281L47 274C33.8912 271.287 22.5579 263.872 17.4645 251C9.28749 230.336 23.9448 204.056 47 203L47 197C17.0587 199.446 0.263908 233.015 14.1235 259C21.0856 272.053 33.0296 278.116 47 281M55 197L55 222L61 222L61 204C93.0765 214.944 95.3642 262.1 61 272L61 256L55 256L55 281C68.4355 279.189 81.2568 272.178 87.9645 260C102.279 234.012 85.9729 198.35 55 197z"/>
<path style="fill:#799fd1; stroke:none;" d="M60.6667 197.333L61.3333 197.667L60.6667 197.333M37.6667 198.333L38.3333 198.667L37.6667 198.333M64 198L65 199L64 198M35 199L36 200L35 199M67 199L68 200L67 199M32.6667 200.333L33.3333 200.667L32.6667 200.333M69 200L70 201L69 200z"/>
<path style="fill:#535353; stroke:none;" d="M31 201L32 202L31 201z"/>
<path style="fill:#799fd1; stroke:none;" d="M71 201L72 202L71 201M29 202L30 203L29 202M73 202L74 203L73 202M27 203L28 204L27 203M41.6667 203.333L42.3333 203.667L41.6667 203.333z"/>
<path style="fill:#535353; stroke:none;" d="M74 203L75 204L74 203z"/>
<path style="fill:#799fd1; stroke:none;" d="M26 204L27 205L26 204M38.6667 204.333L39.3333 204.667L38.6667 204.333M61.6667 204.333L62.3333 204.667L61.6667 204.333M76 204L77 205L76 204M36 205L37 206L36 205z"/>
<path style="fill:#535353; stroke:none;" d="M65 205L66 206L65 205z"/>
<path style="fill:#799fd1; stroke:none;" d="M77 205L78 206L77 205M23 206L24 207L23 206M34 206L35 207L34 206M67 206L68 207L67 206M22 207L23 208L22 207M32 207L33 208L32 207M69 207L70 208L69 207z"/>
<path style="fill:#054dad; stroke:none;" d="M163 207L163 270L175 270C175 262.557 171.097 230.233 185.995 233.931C197.097 236.687 193 261.654 193 270L204 270C204 254.961 209.983 216.395 183 224.804C179.654 225.847 176.897 228.116 174 230L175 207L163 207z"/>
<path style="fill:#799fd1; stroke:none;" d="M218 209L221 208L218 209z"/>
<path style="fill:#054dad; stroke:none;" d="M221.109 207.746C213.784 210.788 218.88 220.634 225.941 218.066C233.521 215.31 228.577 204.645 221.109 207.746z"/>
<path style="fill:#799fd1; stroke:none;" d="M227 207L228 208L227 207M245 207L246 208L245 207z"/>
<path style="fill:#054dad; stroke:none;" d="M246.148 207.746C239.671 210.571 244.052 220.724 250.941 218.218C258.557 215.447 253.752 204.43 246.148 207.746z"/>
<path style="fill:#799fd1; stroke:none;" d="M252 207L253 208L252 207M295 207L295 225L296 225L295 207z"/>
<path style="fill:#054dad; stroke:none;" d="M296 207L297 230C293.487 227.715 290.241 225.075 286 224.33C257.595 219.342 259.188 278.35 288 269.602C291.28 268.606 293.574 266.293 296 264C298.648 269.825 302.04 269.995 308 270L308 207L296 207M449 207L449 270L461 270C461 262.557 457.097 230.233 471.995 233.931C483.097 236.687 479 261.654 479 270L490 270C490 254.961 495.983 216.395 469 224.804C465.654 225.847 462.897 228.116 460 230L461 207L449 207z"/>
<path style="fill:#799fd1; stroke:none;" d="M21 208L22 209L21 208z"/>
<path style="fill:#535353; stroke:none;" d="M30 208L31 209L30 208z"/>
<path style="fill:#799fd1; stroke:none;" d="M70 208L71 209L70 208M243 208L244 209L243 208M20 209L21 210L20 209M29 209L30 210L29 209M229 209L230 210L229 209M19 210L20 211L19 210M73 210L74 211L73 210M128.667 210.333L129.333 210.667L128.667 210.333z"/>
<path style="fill:#054dad; stroke:none;" d="M151 268L151 258C143.426 259.02 135.192 262.688 128.093 257.995C117.514 251 118.408 228.741 129.04 222.228C135.699 218.15 142.524 221.357 149 224L153 214C141.395 208.862 126.106 207.552 116.329 217.329C103.847 229.81 104.981 260.022 122 268.08C130.985 272.335 141.811 270.1 151 268z"/>
<path style="fill:#799fd1; stroke:none;" d="M142.667 210.333L143.333 210.667L142.667 210.333M217 210L218 211L217 210M242.333 210.667L242.667 211.333L242.333 210.667M255 210L255 215L256 215L255 210M74 211L75 212L74 211M125 211L126 212L125 211M146.667 211.333L147.333 211.667L146.667 211.333M230 211L230 215L231 215L230 211M75 212L76 213L75 212M84 212L85 213L84 212M123 212L124 213L123 212M149.667 212.333L150.333 212.667L149.667 212.333z"/>
<path style="fill:#535353; stroke:none;" d="M242 212L243 213L242 212M17 213L18 214L17 213z"/>
<path style="fill:#799fd1; stroke:none;" d="M76 213L77 214L76 213M85 213L86 214L85 213M121 213L122 214L121 213M152 213L153 214L152 213M242 213L242 216L243 216L242 213M16 214L17 215L16 214M77 214L78 215L77 214M119 214L120 215L119 214M78 215L79 216L78 215z"/>
<path style="fill:#535353; stroke:none;" d="M86 215L87 216L86 215z"/>
<path style="fill:#799fd1; stroke:none;" d="M118 215L119 216L118 215M152.333 215.667L152.667 216.333L152.333 215.667M217 215L218 216L217 215M326 215L327 216L326 215z"/>
<path style="fill:#054dad; stroke:none;" d="M322 234C322 243.172 319.368 257.868 325.008 265.786C328.204 270.272 341.996 273.172 345.972 268.258C347.619 266.222 346.998 262.431 347 260C330.024 263.14 334 245.847 334 234L347 234L347 225L334 225L334 215C326.883 215.084 309.936 233.06 322 234z"/>
<path style="fill:#799fd1; stroke:none;" d="M334 215L334 225L347 225L347 224L335 224L334 215M22 216L23 217L22 216M87 216L88 217L87 216M229 216L230 217L229 216M254 216L255 217L254 216M14 217L15 218L14 217M21 217L22 218L21 217M228 217L229 218L228 217M253 217L254 218L253 217M325 217L326 218L325 217M80 218L81 219L80 218M88 218L89 219L88 218M151 218L152 219L151 218M220.667 218.333L221.333 218.667L220.667 218.333z"/>
<path style="fill:#535353; stroke:none;" d="M225 218L226 219L225 218z"/>
<path style="fill:#799fd1; stroke:none;" d="M226 218L227 219L226 218M245.667 218.333L246.333 218.667L245.667 218.333M251.667 218.333L252.333 218.667L251.667 218.333M13 219L14 220L13 219M114 219L115 220L114 219z"/>
<path style="fill:#535353; stroke:none;" d="M19 220L20 221L19 220z"/>
<path style="fill:#799fd1; stroke:none;" d="M81 220L82 221L81 220M89 220L90 221L89 220M113 220L114 221L113 220M132 220L132 221L135 221L132 220M137 220L137 221L140 221L137 220M150.333 220.667L150.667 221.333L150.333 220.667M324 220L325 221L324 220M12 221L13 222L12 221M82 221L83 222L82 221M129 221L130 222L129 221M142 221L143 222L142 221z"/>
<path style="fill:#535353; stroke:none;" d="M143 221L144 222L143 221z"/>
<path style="fill:#799fd1; stroke:none;" d="M18 222L19 223L18 222M90 222L91 223L90 222M112 222L113 223L112 222M145 222L146 223L145 222M323.333 222.667L323.667 223.333L323.333 222.667M11.3333 223.667L11.6667 224.333L11.3333 223.667z"/>
<path style="fill:#535353; stroke:none;" d="M83 223L84 224L83 223M126 223L127 224L126 223z"/>
<path style="fill:#799fd1; stroke:none;" d="M147 223L148 224L147 223M149 223L150 224L149 223M188 223L189 224L188 223M375 223L376 224L375 223M425 223L426 224L425 223M474 223L475 224L474 223M17.3333 224.667L17.6667 225.333L17.3333 224.667M111 224L112 225L111 224z"/>
<path style="fill:#535353; stroke:none;" d="M125 224L126 225L125 224z"/>
<path style="fill:#799fd1; stroke:none;" d="M182.667 224.333L183.333 224.667L182.667 224.333M193.667 224.333L194.333 224.667L193.667 224.333M217 270L218 270L218 225L230 225C227.105 223.785 220.326 222.702 218.028 225.603C215.825 228.385 217 234.672 217 238L217 270M243 224L243 225L255 225L243 224M277.667 224.333L278.333 224.667L277.667 224.333M287.667 224.333L288.333 224.667L287.667 224.333M368.667 224.333L369.333 224.667L368.667 224.333z"/>
<path style="fill:#054dad; stroke:none;" d="M393 259C382.695 261.357 368.672 265.013 367 250L396 250C395.999 242.162 395.745 233.054 388.895 227.803C375.92 217.856 355.834 226.8 355.04 243C354.58 252.397 355.062 261.905 364.039 267.271C374.292 273.398 392.989 273.067 393 259z"/>
<path style="fill:#799fd1; stroke:none;" d="M381.667 224.333L382.333 224.667L381.667 224.333M418.667 224.333L419.333 224.667L418.667 224.333z"/>
<path style="fill:#054dad; stroke:none;" d="M438 258C433.356 259.241 427.84 262.074 423.005 260.254C413.724 256.76 413.596 240.876 421.029 235.579C425.642 232.292 431.137 234.713 436 236L439 227C431.098 223.132 419.523 222.303 412.015 227.652C402.174 234.664 400.239 255.693 408.533 264.671C413.478 270.023 431.613 274.389 436.972 267.297C438.732 264.969 438 260.739 438 258z"/>
<path style="fill:#535353; stroke:none;" d="M431 224L432 225L431 224z"/>
<path style="fill:#799fd1; stroke:none;" d="M432.667 224.333L433.333 224.667L432.667 224.333M468.667 224.333L469.333 224.667L468.667 224.333M479.667 224.333L480.333 224.667L479.667 224.333M91 225L92 226L91 225M180 225L181 226L180 225z"/>
<path style="fill:#535353; stroke:none;" d="M196 225L197 226L196 225z"/>
<path style="fill:#054dad; stroke:none;" d="M218 225L218 270L230 270L230 225L218 225M243 225L243 270L255 270L255 225L243 225z"/>
<path style="fill:#799fd1; stroke:none;" d="M275 225L276 226L275 225M290 225L291 226L290 225M321 225L322 226L321 225M366 225L367 226L366 225M385 225L386 226L385 225M415 225L416 226L415 225M436 225L437 226L436 225M466 225L467 226L466 225z"/>
<path style="fill:#535353; stroke:none;" d="M482 225L483 226L482 225z"/>
<path style="fill:#799fd1; stroke:none;" d="M10.3333 226.667L10.6667 227.333L10.3333 226.667M84 226L85 227L84 226M110 226L111 227L110 226M124 226L125 227L124 226M178 226L179 227L178 226M198 226L199 227L198 226M273 226L274 227L273 226M292 226L293 227L292 226M319 226L320 227L319 226M364 226L365 227L364 226M387 226L388 227L387 226M413 226L414 227L413 226M438 226L439 227L438 226M464 226L465 227L464 226M484 226L485 227L484 226M16 227L17 228L16 227M29 227L30 228L29 227z"/>
<path style="fill:#535353; stroke:none;" d="M29 250L30 250L30 228L35 228C25.9553 224.564 29 244.862 29 250z"/>
<path style="fill:#799fd1; stroke:none;" d="M35 227C35.0376 237.647 42.9624 237.647 43 227L42 227L42 235L36 235L35 227z"/>
<path style="fill:#535353; stroke:none;" d="M43 227L43 228L48 228L48 250C50.6499 243.685 51.5681 227.668 43 227z"/>
<path style="fill:#799fd1; stroke:none;" d="M48 227L49 228L48 227M53 227L53 250L54 250L53 227z"/>
<path style="fill:#535353; stroke:none;" d="M54 227L54 228L59 228L59 250C61.6499 243.685 62.5681 227.668 54 227z"/>
<path style="fill:#799fd1; stroke:none;" d="M59 227L60 228L59 227M64 227L65 228L64 227z"/>
<path style="fill:#535353; stroke:none;" d="M64 250L65 250L65 228L70 228L70 250C71.3516 246.779 72.5546 222.86 65.5988 228.047C61.6422 230.997 64 245.426 64 250z"/>
<path style="fill:#799fd1; stroke:none;" d="M70 227L71 228L70 227z"/>
<path style="fill:#535353; stroke:none;" d="M123 227L124 228L123 227z"/>
<path style="fill:#799fd1; stroke:none;" d="M177 227L178 228L177 227M272 227L273 228L272 227M293 227L294 228L293 227z"/>
<path style="fill:#535353; stroke:none;" d="M318 227L319 228L318 227z"/>
<path style="fill:#799fd1; stroke:none;" d="M362 227L363 228L362 227M388 227L389 228L388 227M411 227L412 228L411 227M439 227L440 228L439 227M463 227L464 228L463 227z"/>
<path style="fill:#020202; stroke:none;" d="M30 228L30 250L35 250C35.0396 238.783 42.9604 238.783 43 250L48 250L48 228L43 228L43 236L35 236L35 228L30 228M54 228L54 250L59 250L59 228L54 228M65 228L65 250L70 250L70 228L65 228z"/>
<path style="fill:#799fd1; stroke:none;" d="M92.3333 228.667L92.6667 229.333L92.3333 228.667M174.333 228.667L174.667 229.333L174.333 228.667M176 228L177 229L176 228M271 228L272 229L271 228M294 228L295 229L294 228M316 228L317 229L316 228M361 228L362 229L361 228M410 228L411 229L410 228M460.333 228.667L460.667 229.333L460.333 228.667M462 228L463 229L462 228M85.3333 229.667L85.6667 230.333L85.3333 229.667M109 229L110 230L109 229M201 229L202 230L201 229M270 229L271 230L270 229M295.667 229.333L296.333 229.667L295.667 229.333M360 229L361 230L360 229M409 229L410 230L409 229M438.333 229.667L438.667 230.333L438.333 229.667M487 229L488 230L487 229z"/>
<path style="fill:#535353; stroke:none;" d="M109 230L110 231L109 230z"/>
<path style="fill:#799fd1; stroke:none;" d="M122 230L123 231L122 230M202 230L203 231L202 230M359 230L360 231L359 230M408 230L409 231L408 230M488 230L489 231L488 230M9 231L10 232L9 231M15 231L15 234L16 234L15 231M358 231L359 232L358 231M392 231L393 232L392 231M407 231L408 232L407 231M203.333 232.667L203.667 233.333L203.333 232.667M268 232L269 233L268 232M374 232L374 233L378 233L374 232M437 232L438 233L437 232M489.333 232.667L489.667 233.333L489.333 232.667M93 233L93 237L94 237L93 233M108 233L108 237L109 237L108 233M121 233L121 236L122 236L121 233z"/>
<path style="fill:#535353; stroke:none;" d="M183 233L184 234L183 233z"/>
<path style="fill:#799fd1; stroke:none;" d="M184.667 233.333L185.333 233.667L184.667 233.333z"/>
<path style="fill:#535353; stroke:none;" d="M186 233L187 234L186 233z"/>
<path style="fill:#799fd1; stroke:none;" d="M316 233L317 234L316 233M357 233L358 234L357 233M371 233L368 237L371 233z"/>
<path style="fill:#ffffff; stroke:none;" d="M367 242L384 242C382.615 229.571 370.2 231.801 367 242z"/>
<path style="fill:#535353; stroke:none;" d="M380 233L381 234L380 233M393 233L394 234L393 233z"/>
<path style="fill:#799fd1; stroke:none;" d="M406 233L407 234L406 233M425 233L426 234L425 233z"/>
<path style="fill:#535353; stroke:none;" d="M469 233L470 234L469 233z"/>
<path style="fill:#799fd1; stroke:none;" d="M470.667 233.333L471.333 233.667L470.667 233.333z"/>
<path style="fill:#535353; stroke:none;" d="M472 233L473 234L472 233M86 234L87 235L86 234z"/>
<path style="fill:#799fd1; stroke:none;" d="M180 234L181 235L180 234M188 234L189 235L188 234M267 234L268 235L267 234M283 234L284 235L283 234z"/>
<path style="fill:#ffffff; stroke:none;" d="M284.055 234.746C273.87 238.799 276.92 264.878 289.981 260.091C300.733 256.151 297.385 229.441 284.055 234.746z"/>
<path style="fill:#799fd1; stroke:none;" d="M290 234L291 235L290 234M334 234L334 258L335 258L334 234M381 234L382 235L381 234M421 234L422 235L421 234M430 234L431 235L430 234z"/>
<path style="fill:#535353; stroke:none;" d="M431 234L432 235L431 234M436 234L437 235L436 234z"/>
<path style="fill:#799fd1; stroke:none;" d="M466 234L467 235L466 234M474 234L475 235L474 234z"/>
<path style="fill:#535353; stroke:none;" d="M35 235L36 236L35 235M42 235L43 236L42 235z"/>
<path style="fill:#799fd1; stroke:none;" d="M86 235L86 242L87 242L86 235z"/>
<path style="fill:#535353; stroke:none;" d="M267 235L268 236L267 235z"/>
<path style="fill:#799fd1; stroke:none;" d="M292 235L293 236L292 235M356 235L357 236L356 235M382 235L383 236L382 235M394 235L395 236L394 235M405 235L406 236L405 235M433 235L434 236L433 235M436 235L437 236L436 235M190 236L191 237L190 236M204 236L204 270L205 270L204 236M293 236L294 237L293 236M476 236L477 237L476 236M490 236L490 270L491 270L490 236M177 237L178 238L177 237z"/>
<path style="fill:#535353; stroke:none;" d="M191 237L192 238L191 237z"/>
<path style="fill:#799fd1; stroke:none;" d="M266.333 237.667L266.667 238.333L266.333 237.667M294 237L295 238L294 237M355.333 237.667L355.667 238.333L355.333 237.667M383 237L384 238L383 237M395 237L395 240L396 240L395 237M404.333 237.667L404.667 238.333L404.333 237.667M463 237L464 238L463 237z"/>
<path style="fill:#535353; stroke:none;" d="M477 237L478 238L477 237M176 238L177 239L176 238z"/>
<path style="fill:#799fd1; stroke:none;" d="M191 238L192 239L191 238M279.333 238.667L279.667 239.333L279.333 238.667z"/>
<path style="fill:#535353; stroke:none;" d="M367 238L368 239L367 238z"/>
<path style="fill:#799fd1; stroke:none;" d="M417 238L418 239L417 238z"/>
<path style="fill:#535353; stroke:none;" d="M462 238L463 239L462 238z"/>
<path style="fill:#799fd1; stroke:none;" d="M477 238L478 239L477 238M176 239L177 240L176 239M295.333 239.667L295.667 240.333L295.333 239.667M367.333 239.667L367.667 240.333L367.333 239.667M462 239L463 240L462 239z"/>
<path style="fill:#535353; stroke:none;" d="M36 240L36 241L42 241L36 240M93 240L94 241L93 240z"/>
<path style="fill:#799fd1; stroke:none;" d="M384.333 240.667L384.667 241.333L384.333 240.667z"/>
<path style="fill:#535353; stroke:none;" d="M416 240L417 241L416 240z"/>
<path style="fill:#799fd1; stroke:none;" d="M35 241L35 250L36 250L35 241M42 241L42 250L43 250L42 241M93 241L93 245L94 245L93 241M278 241L278 244L279 244L278 241M354 241L354 247L355 247L354 241M403 241L403 247L404 247L403 241M416.333 241.667L416.667 242.333L416.333 241.667M175 242L175 245L176 245L175 242z"/>
<path style="fill:#535353; stroke:none;" d="M192 242L193 243L192 242z"/>
<path style="fill:#799fd1; stroke:none;" d="M461 242L461 245L462 245L461 242z"/>
<path style="fill:#535353; stroke:none;" d="M478 242L479 243L478 242z"/>
<path style="fill:#799fd1; stroke:none;" d="M15.3333 243.667L15.6667 244.333L15.3333 243.667M192 243L192 270L193 270L192 243M265 243L265 252L266 252L265 243M478 243L478 270L479 270L478 243z"/>
<path style="fill:#535353; stroke:none;" d="M108 244L109 245L108 244z"/>
<path style="fill:#799fd1; stroke:none;" d="M296 244L296 250L297 250L296 244M9.33333 245.667L9.66667 246.333L9.33333 245.667M85.3333 245.667L85.6667 246.333L85.3333 245.667M108 245L108 249L109 249L108 245M121 245L121 248L122 248L121 245z"/>
<path style="fill:#535353; stroke:none;" d="M85 247L86 248L85 247z"/>
<path style="fill:#799fd1; stroke:none;" d="M92 247L92 250L93 250L92 247z"/>
<path style="fill:#535353; stroke:none;" d="M354 247L355 248L354 247M403 247L404 248L403 247z"/>
<path style="fill:#799fd1; stroke:none;" d="M16 248L17 249L16 248M354 248L354 253L355 253L354 248M403 248L403 254L404 254L403 248z"/>
<path style="fill:#535353; stroke:none;" d="M10 249L11 250L10 249z"/>
<path style="fill:#799fd1; stroke:none;" d="M84 249L85 250L84 249M10 250L11 251L10 250M122.333 250.667L122.667 251.333L122.333 250.667z"/>
<path style="fill:#535353; stroke:none;" d="M296 250L297 251L296 250z"/>
<path style="fill:#799fd1; stroke:none;" d="M367 250L367 251L396 251L367 250M17 251L18 252L17 251z"/>
<path style="fill:#535353; stroke:none;" d="M91 251L92 252L91 251z"/>
<path style="fill:#799fd1; stroke:none;" d="M109.333 251.667L109.667 252.333L109.333 251.667M278 251L278 254L279 254L278 251M83 252L84 253L83 252M91 252L92 253L91 252M416.333 252.667L416.667 253.333L416.333 252.667M11 253L12 254L11 253M18 253L19 254L18 253M123 253L124 254L123 253M82 254L83 255L82 254z"/>
<path style="fill:#535353; stroke:none;" d="M90 254L91 255L90 254z"/>
<path style="fill:#799fd1; stroke:none;" d="M295.333 254.667L295.667 255.333L295.333 254.667M367 254L368 255L367 254M12 255L13 256L12 255M19 255L20 256L19 255M110 255L111 256L110 255z"/>
<path style="fill:#535353; stroke:none;" d="M266 255L267 256L266 255z"/>
<path style="fill:#799fd1; stroke:none;" d="M279 255L280 256L279 255M54 256L54 281L55 281L54 256M81 256L82 257L81 256z"/>
<path style="fill:#535353; stroke:none;" d="M89 256L90 257L89 256z"/>
<path style="fill:#799fd1; stroke:none;" d="M125 256L126 257L125 256M266.333 256.667L266.667 257.333L266.333 256.667z"/>
<path style="fill:#535353; stroke:none;" d="M279 256L280 257L279 256z"/>
<path style="fill:#799fd1; stroke:none;" d="M355 256L356 257L355 256M368 256L369 257L368 256z"/>
<path style="fill:#535353; stroke:none;" d="M404 256L405 257L404 256M417 256L418 257L417 256z"/>
<path style="fill:#799fd1; stroke:none;" d="M20 257L21 258L20 257M89 257L90 258L89 257M111 257L112 258L111 257z"/>
<path style="fill:#535353; stroke:none;" d="M126 257L127 258L126 257z"/>
<path style="fill:#799fd1; stroke:none;" d="M149.667 257.333L150.333 257.667L149.667 257.333M280 257L281 258L280 257M294 257L295 258L294 257M404 257L405 258L404 257M418 257L419 258L418 257M437 257L438 267L439 267L437 257M21 258L22 259L21 258M128 258L129 259L128 258M146.667 258.333L147.333 258.667L146.667 258.333M293 258L294 259L293 258M322 258L322 261L323 261L322 258M392 258L393 268L394 268L392 258M419 258L420 259L419 258M435 258L436 259L435 258M14 259L15 260L14 259M79 259L80 260L79 259M88 259L89 260L88 259M112 259L113 260L112 259M130 259L131 260L130 259M142.667 259.333L143.333 259.667L142.667 259.333M267 259L268 260L267 259M282 259L283 260L282 259M292 259L293 260L292 259z"/>
<path style="fill:#535353; stroke:none;" d="M335 259L336 260L335 259z"/>
<path style="fill:#799fd1; stroke:none;" d="M356 259L357 260L356 259M389.667 259.333L390.333 259.667L389.667 259.333M420 259L421 260L420 259M432.667 259.333L433.333 259.667L432.667 259.333M78 260L79 261L78 260M134 260L134 261L137 261L134 260z"/>
<path style="fill:#535353; stroke:none;" d="M137 260L138 261L137 260z"/>
<path style="fill:#799fd1; stroke:none;" d="M284 260L285 261L284 260M289.667 260.333L290.333 260.667L289.667 260.333M337 260L338 261L337 260M342 260L342 261L345 261L342 260M347 260L347 269L348 269L347 260M372 260L373 261L372 260M386.667 260.333L387.333 260.667L386.667 260.333M405 260L406 261L405 260M422 260L422 261L425 261L422 260M426 260L426 261L430 261L426 260M15 261L16 262L15 261M23 261L24 262L23 261M375 261L375 262L383 262L375 261M24 262L25 263L24 262M86 262L87 263L86 262M114 262L115 263L114 262M268 262L269 263L268 262M358 262L359 263L358 262M406 262L407 263L406 262M25 263L26 264L25 263M85 263L86 264L85 263M115 263L116 264L115 263M269 263L270 264L269 263M323 263L324 264L323 263M359 263L360 264L359 263M407 263L408 264L407 263M17 264L18 265L17 264M26 264L27 265L26 264M116 264L117 265L116 264M295 264L296 265L295 264M18 265L19 266L18 265M27 265L28 266L27 265M73 265L74 266L73 265M117 265L118 266L117 265M294 265L295 266L294 265M296 265L297 266L296 265M324 265L325 266L324 265M361 265L362 266L361 265M72 266L73 267L72 266M83 266L84 267L83 266M271 266L272 267L271 266M293 266L294 267L293 266M362 266L363 267L362 266z"/>
<path style="fill:#535353; stroke:none;" d="M410 266L411 267L410 266z"/>
<path style="fill:#799fd1; stroke:none;" d="M30 267L31 268L30 267z"/>
<path style="fill:#535353; stroke:none;" d="M71 267L72 268L71 267z"/>
<path style="fill:#799fd1; stroke:none;" d="M82 267L83 268L82 267M120 267L121 268L120 267M272 267L273 268L272 267M292 267L293 268L292 267M297 267L298 268L297 267M411 267L412 268L411 267M31 268L32 269L31 268M69 268L70 269L69 268M81 268L82 269L81 268M122 268L123 269L122 268M148.667 268.333L149.333 268.667L148.667 268.333M274 268L275 269L274 268M291 268L292 269L291 268M327 268L328 269L327 268M365 268L366 269L365 268z"/>
<path style="fill:#535353; stroke:none;" d="M366 268L367 269L366 268z"/>
<path style="fill:#799fd1; stroke:none;" d="M391 268L392 269L391 268M413 268L414 269L413 268M436 268L437 269L436 268M33 269L34 270L33 269M80 269L81 270L80 269M125 269L126 270L125 269M145.667 269.333L146.333 269.667L145.667 269.333M276 269L277 270L276 269M289 269L290 270L289 269z"/>
<path style="fill:#535353; stroke:none;" d="M298 269L299 270L298 269z"/>
<path style="fill:#799fd1; stroke:none;" d="M329 269L330 270L329 269M345 269L346 270L345 269M368 269L369 270L368 269z"/>
<path style="fill:#535353; stroke:none;" d="M387 269L388 270L387 269z"/>
<path style="fill:#799fd1; stroke:none;" d="M388 269L389 270L388 269M415 269L416 270L415 269z"/>
<path style="fill:#535353; stroke:none;" d="M416 269L417 270L416 269z"/>
<path style="fill:#799fd1; stroke:none;" d="M433.667 269.333L434.333 269.667L433.667 269.333M35 270L36 271L35 270M79 270L80 271L79 270M128 270L128 271L133 271L128 270z"/>
<path style="fill:#535353; stroke:none;" d="M133 270L134 271L133 270z"/>
<path style="fill:#799fd1; stroke:none;" d="M136 270L136 271L142 271L136 270M278 270L278 271L281 271L278 270z"/>
<path style="fill:#535353; stroke:none;" d="M281 270L282 271L281 270M283 270L284 271L283 270z"/>
<path style="fill:#799fd1; stroke:none;" d="M284 270L284 271L287 271L284 270M332 270L332 271L335 271L332 270z"/>
<path style="fill:#535353; stroke:none;" d="M335 270L336 271L335 270M337 270L338 271L337 270z"/>
<path style="fill:#799fd1; stroke:none;" d="M338 270L338 271L343 271L338 270M372 270L372 271L376 271L372 270z"/>
<path style="fill:#535353; stroke:none;" d="M376 270L377 271L376 270M379 270L380 271L379 270z"/>
<path style="fill:#799fd1; stroke:none;" d="M380 270L380 271L385 271L380 270M419 270L419 271L422 271L419 270z"/>
<path style="fill:#535353; stroke:none;" d="M422.667 270.333L423.333 270.667L422.667 270.333M426 270L427 271L426 270z"/>
<path style="fill:#799fd1; stroke:none;" d="M427 270L427 271L431 271L427 270M24 271L25 272L24 271M37.6667 271.333L38.3333 271.667L37.6667 271.333M63 271L64 272L63 271M78 271L79 272L78 271M25 272L26 273L25 272M40.6667 272.333L41.3333 272.667L40.6667 272.333M44.6667 273.333L45.3333 273.667L44.6667 273.333M75 273L76 274L75 273M28 274L29 275L28 274M47 274L47 281L48 281L47 274M30 275L31 276L30 275M72 275L73 276L72 275M70 276L71 277L70 276M34 277L35 278L34 277M68 277L69 278L68 277M36 278L37 279L36 278M65.6667 278.333L66.3333 278.667L65.6667 278.333M39 279L40 280L39 279z"/>
<path style="fill:#535353; stroke:none;" d="M40 279L41 280L40 279z"/>
<path style="fill:#799fd1; stroke:none;" d="M62.6667 279.333L63.3333 279.667L62.6667 279.333M43.6667 280.333L44.3333 280.667L43.6667 280.333M58 280L59 281L58 280z"/>
</svg>
